<svg xmlns="http://www.w3.org/2000/svg" width="684" height="1197" viewBox="0 0 684 1197" preserveAspectRatio="xMidYMid meet" role="img" aria-label="Thurmont Village two-bedroom townhome main-level floor plan">
<defs><style>
    .fp{fill:#FFFFFF}
    .w{fill:none;stroke:#2C3E2D;stroke-width:7;stroke-linecap:butt}
    .wo{fill:none;stroke:#2C3E2D;stroke-width:10;stroke-linecap:butt}
    .d{fill:none;stroke:#7C9880;stroke-width:2.5;stroke-dasharray:5 6}
    .arc{fill:none;stroke:#5E7D63;stroke-width:3}
    .win{fill:none;stroke:#2C3E2D;stroke-width:2.5}
    .st{fill:none;stroke:#2C3E2D;stroke-width:2.5}
    .rm{fill:#22331F;font-family:'Helvetica Neue',Arial,sans-serif;font-size:25px;font-style:italic;text-anchor:middle}
    .cl{fill:#4A5C4D;font-family:'Helvetica Neue',Arial,sans-serif;font-size:18px;font-style:italic;text-anchor:middle}
    .sm{fill:#4A5C4D;font-family:'Helvetica Neue',Arial,sans-serif;font-size:14px;font-style:italic;text-anchor:middle}
  </style></defs>
<rect class="fp" x="23" y="23" width="641" height="1144"/>
<path class="w" d="M17,594 H34 M42,594 H191 M297,594 H671 M17,707 H195"/>
<path class="d" d="M201,590 H293 M201,598 H293 M182,621 V695 M190,621 V695"/>
<path class="win" d="M153,18 H263 M153,23 H263 M153,28 H263 M153,16 V30 M263,16 V30"/>
<path class="arc" d="M621,23 V123 M521,23 A100,100 0 0 0 621,123"/>
<path class="arc" d="M191,1167 V1061 M191,1061 A106,106 0 0 1 297,1167"/>
<path class="win" d="M465,1162 H567 M465,1167 H567 M465,1172 H567 M465,1160 V1174 M567,1160 V1174"/>
<path class="st" d="M39,607 V697 M39,631 H184 M39,658 H184 M39,688 H184"/>
<path class="st" d="M39,714 V1163 M184,714 V1163 M39,718 H184 M39,748 H184 M39,778 H184 M39,808 H184 M39,838 H184 M39,868 H184 M39,898 H184 M39,928 H184 M39,958 H184 M39,988 H184 M39,1018 H184 M39,1048 H184 M39,1078 H184 M39,1108 H184 M39,1138 H184"/>
<path class="wo" d="M23,23 H153 M263,23 H521 M621,23 H664 V1167 H567 M465,1167 H297 M191,1167 H23 V23"/>
<text class="rm" x="343" y="315">Kitchen/Dining</text>
<text class="rm" x="450" y="890">Living Room</text>
<text class="sm" x="103" y="660">Closet</text>
</svg>